# xmcd
#
# Track frame offsets:
#	150
#	12638
#	25546
#	39412
#	52295
#	65839
#	78498
#	90956
#	103553
#	115440
#	127106
#	139243
#	152067
#	164031
#	176044
#	188683
#
# Disc length: 2712 seconds
#
# Revision: 1
# Processed by: cddbd v1.5.2PL0 Copyright (c) Steve Scherf et al.
# Submitted via: audiograbber 1.83.01
#
DISCID=e10a9610
DTITLE=Various Artist - Classic Country - Roots Of Country [Disc 2]
DYEAR=2001
DGENRE=Country
TTITLE0=Gene Autry - Deep In The Heart Of Texas
TTITLE1=Bill Monroe and His Bluegrass Boys - I Wonder If You Feel The Way I Do
TTITLE2=Tex Owens - Cattle Call
TTITLE3=Hoosier Hot Shots - Sioux City Sue
TTITLE4=Jimmie Rodgers - Blue Yodel No. 11
TTITLE5=Hank Williams - I'm So Lonesome I Could Cry
TTITLE6=Sons Of The Pioneers - Cool Water
TTITLE7=The Carter Family - Hello Stranger
TTITLE8=Ernest Tubb - Walking The Floor Over You
TTITLE9=Eddy Arnold - Bouquet Of Roses
TTITLE10=Bob Wills and His Texas Playboys - Time Changes Everything
TTITLE11=Tex Ritter - I'm Wastin' My Tears On You
TTITLE12=Roy Acuff - Wabash Cannonball
TTITLE13=Hank Snow - Brand On My Heart
TTITLE14=Jack Guthrie - Oklahoma Hills
TTITLE15=T. Texas Tyler - Deck Of Cards
EXTD=
EXTT0=
EXTT1=
EXTT2=
EXTT3=
EXTT4=
EXTT5=
EXTT6=
EXTT7=
EXTT8=
EXTT9=
EXTT10=
EXTT11=
EXTT12=
EXTT13=
EXTT14=
EXTT15=
PLAYORDER=
